<svg width="1522" height="624" viewBox="0 0 1522 624" fill="none" xmlns="http://www.w3.org/2000/svg">
<path d="M1407.13 282.706C1392.36 292.921 1361.96 308.38 1345.14 316.684C1344.83 316.836 1344.53 316.988 1344.22 317.14C1340.19 319.132 1336.49 320.959 1332.01 323.155C1321.45 328.33 1307.18 335.252 1277.24 349.435C1268.57 353.591 1259.85 357.772 1251.19 361.938C1215.98 378.89 1180.82 395.897 1146.43 414.253C1092.3 446.813 1049.65 504.291 1038.63 566.576C1038.5 567.871 1038.4 569.168 1038.34 570.458C1037.22 584.409 1041.88 601.317 1055 607.91C1065.26 613.666 1075.73 616.797 1084.19 617.396C1109.41 619.224 1122.51 603.168 1127.44 591.029C1139.96 558.683 1124 522.12 1102.76 495.591C1071.26 461.309 1038.29 426.263 1005.95 391.766C994.332 379.397 982.792 367.131 971.182 354.816C964.998 348.257 958.828 341.719 952.635 335.165C936.248 317.822 919.851 300.518 903.386 283.213C893.746 273.161 884.506 263.571 876.119 254.89C864.005 242.346 853.571 231.594 844.632 222.362C830.374 207.809 814.461 190.642 800.221 177.748C792.522 170.967 786.512 164.666 780.241 158.916C777.376 156.234 774.115 153.241 771.608 150.972C756.48 137.406 740.611 124.35 724.407 112.196C723.362 111.379 722.3 110.551 721.21 109.708C707.393 99.1329 690.116 86.5752 661.105 69.6294C648.404 62.2834 633.538 54.2392 615.414 45.8348C603.717 40.4476 597.662 37.8859 592.695 35.7568C591.231 35.1354 589.852 34.5581 588.449 33.9842C583.601 32.0049 578.586 30.1987 572.456 28.1355C564.453 25.4587 555.031 22.4665 542.293 18.8048C501.706 7.56862 482.782 6.81809 468.911 5.53431C464.788 5.23443 461.041 5.02227 457.264 4.83603C444.913 4.16214 427.287 4.01032 413.928 4.74061C403.418 5.14991 382.341 7.47204 366.578 10.698C360.717 11.8472 352.54 13.5429 343.226 15.9182C336.958 17.5142 330.011 19.4535 322.579 21.8027C318.606 23.0585 314.549 24.3156 310.448 25.5603C280.353 34.6191 263.927 38.3281 250.922 41.2745C247.214 42.0969 243.592 42.8683 240.126 43.5796C229.261 45.8196 215.183 48.3638 201.339 50.2636C184.481 52.6202 167.26 54.0627 154.176 54.5725C120.275 55.7363 85.7887 53.2889 53.3758 42.4629C36.8591 36.9643 21.7827 28.604 12.4318 20.4488C2.98072 12.3592 -0.201945 5.75249 0.0100166 5.7814C0.223644 5.51005 3.77165 11.7516 13.3315 19.3601C22.8 27.0459 37.7663 34.953 54.1156 40.2474C87.3533 51.0359 122.781 52.9883 157.607 51.2204C200.064 48.9097 242.035 40.7222 283.215 29.6286C295.903 26.1979 308.631 22.4379 321.487 18.3479C337.498 13.2542 353.609 9.24458 369.827 6.31131C372.898 5.7559 375.978 5.23868 379.039 4.76317C403.859 0.679034 429.222 -0.375319 446.926 0.109554C461.556 0.471184 472.268 1.54356 481.294 2.62444C487.497 3.3803 493.101 4.20206 498.637 5.07718C501.629 5.55142 505.643 6.2144 510.594 7.14389C530.579 10.6989 564.207 19.5252 593.394 31.5389C606.33 36.742 621.101 43.4866 634.933 50.6097C654.731 60.7443 672.154 71.4167 681.157 76.9999C696.754 86.6037 713.975 98.5845 728.681 109.814C742.701 120.47 754.78 130.621 761.368 136.124C769.498 142.928 776.146 148.872 785.858 158.034C790.466 162.31 796.451 168.439 802.729 174.043C803.337 174.457 804.196 175.194 805.132 176.039C805.723 176.575 806.409 177.211 807.197 177.958C809.063 179.731 810.063 180.714 811.777 182.399C824.597 195.126 833.159 204.182 840.452 211.784C850.91 222.735 858.589 230.842 870.403 242.956C883.56 256.455 896.998 270.407 907.627 281.667C912.407 286.73 918.017 292.63 923.721 298.635C931.376 306.694 939.329 315.079 946.603 322.858C952.573 329.241 957.447 334.585 961.765 339.321C963.111 340.798 964.403 342.214 965.654 343.583C968.398 346.488 971.105 349.354 973.869 352.281C975.921 354.455 977.969 356.624 980.011 358.787C980.799 359.592 981.627 360.437 982.49 361.318C986.784 365.701 992.245 371.285 998.696 378.031C1009.12 388.933 1018.02 398.506 1027.44 408.647C1034.81 416.575 1042.43 424.784 1051.25 434.164C1057.26 440.546 1064.16 447.844 1070.93 455.004C1080.91 465.566 1090.96 476.23 1097.76 483.628C1099.1 485.079 1100.44 486.563 1101.42 487.673C1101.67 487.958 1101.91 488.229 1102.14 488.49C1102.49 488.882 1102.81 489.246 1103.11 489.586C1103.71 490.263 1104.21 490.839 1104.62 491.317C1104.63 491.326 1104.63 491.334 1104.64 491.343C1104.69 491.407 1104.75 491.47 1104.8 491.531C1104.92 491.666 1105.03 491.794 1105.13 491.911C1105.61 492.431 1105.87 492.73 1106.06 492.952C1121.18 511.825 1133.3 534.3 1135.97 558.909C1136.21 561.109 1136.37 563.216 1136.44 565.463C1136.89 576.184 1134.61 586.576 1132 592.97C1129.86 599.634 1118.8 618.336 1098.14 622.069C1085.14 624.822 1071.55 621.664 1061.66 617.518C1058.26 616.109 1055.33 614.64 1052.23 612.879C1049.74 611.453 1047.58 609.89 1045.47 607.933C1041.05 603.851 1037.62 598.42 1035.52 592.149C1034.45 589.006 1033.65 585.446 1033.21 581.76C1032.81 578.382 1032.68 574.977 1032.81 571.292C1032.92 567.961 1033.58 560.376 1035.93 551.131C1037.34 545.5 1039.4 539.03 1041.9 532.579C1048.48 515.305 1057.33 499.118 1067.52 483.84C1069.61 480.619 1071.45 477.869 1072.91 475.669C1073.96 474.091 1074.84 472.749 1075.76 471.371C1077.01 469.498 1078.33 467.571 1080.24 464.988C1081.74 462.968 1083.59 460.66 1084.89 459.156C1085.5 458.454 1085.98 457.928 1086.42 457.452C1086.93 456.907 1087.38 456.423 1087.9 455.813C1088.28 455.373 1088.66 454.903 1089.13 454.328C1089.88 453.411 1090.86 452.218 1092.45 450.47C1098.32 444.004 1105.4 436.933 1112.8 430.542C1121.01 423.412 1129.67 417.144 1136.94 412.746C1138.96 411.516 1141.2 410.23 1143.6 408.961C1150.95 405.08 1159.98 400.462 1169 395.957C1177.31 391.808 1185.72 387.683 1192.89 384.184C1199.95 380.733 1207.25 377.14 1214.35 373.674C1222.87 369.513 1231.08 365.545 1238.11 362.268C1239.53 361.606 1241.32 360.835 1243.56 359.87C1245.15 359.186 1246.98 358.398 1249.06 357.486C1257.95 353.266 1266.91 349.041 1275.8 344.843C1276.11 344.686 1276.44 344.523 1276.76 344.361C1276.76 344.358 1276.77 344.356 1276.77 344.353C1283.99 340.695 1293.91 335.701 1308.04 329.181C1311.6 327.534 1313.91 326.521 1315.97 325.619C1318 324.726 1319.74 323.963 1322.39 322.707C1325.38 321.284 1328.76 319.613 1332.59 317.705C1337.86 315.076 1343.74 312.132 1349.76 309.222C1350.17 309.025 1350.61 308.814 1351.06 308.594C1355.33 306.525 1361.81 303.356 1368.09 300.27C1381.5 293.328 1394.81 286.373 1407.16 278.111C1412.08 274.766 1416.96 271.367 1421.77 267.875C1450.07 247.523 1475.68 222.933 1494.07 193.209C1503.08 178.845 1510.01 163.976 1514.44 152.851C1518.9 141.682 1520.9 135.196 1521.17 135.26C1521.36 135.336 1519.81 141.963 1515.74 153.347C1511.68 164.683 1505.02 179.836 1496.05 194.434C1481.52 218.32 1462.41 239.29 1440.92 257.107C1439.79 258.052 1438.66 258.99 1437.53 259.911C1429.08 266.795 1420.99 272.843 1412.79 278.714C1411.62 279.552 1410.45 280.382 1409.29 281.205C1408.59 281.698 1407.87 282.198 1407.13 282.706Z" fill="#A49582"/>
</svg>
