<svg width="966" height="341" viewBox="0 0 966 341" fill="none" xmlns="http://www.w3.org/2000/svg">
<path d="M46.0233 183.136C33.3228 207.831 33.5537 226.756 46.716 239.912H10L117.031 23.1949C114.26 19.0406 108.487 14.6554 99.7118 10.0396C90.9369 5.42365 85.6258 2.07716 83.7784 0H139.892L264.241 239.912H226.486L182.15 152.325H60.9175L46.0233 183.136ZM120.148 29.0802L63.3421 147.132H179.725L120.148 29.0802ZM435.893 186.598C435.431 188.213 434.507 190.521 433.121 193.522C431.968 196.292 428.388 201.138 422.384 208.062C416.611 214.986 409.453 220.986 400.908 226.064C381.511 238.527 360.267 244.758 337.175 244.758C324.705 244.758 313.044 242.335 302.191 237.488C291.569 232.642 282.794 226.295 275.866 218.448C269.17 210.6 263.512 201.715 258.894 191.791C254.276 181.636 251.966 171.48 251.966 161.326C252.198 150.94 253.814 140.901 256.815 131.207C257.277 129.823 258.086 127.976 259.24 125.668C260.395 123.129 263.05 118.629 267.207 112.167C271.363 105.704 275.982 99.7038 281.062 94.1648C286.373 88.6257 293.531 83.0866 302.537 77.5475C311.775 71.777 321.588 67.5079 331.979 64.7384C349.298 60.8145 368.349 61.2765 389.132 66.1232C394.905 67.5079 399.985 69.4694 404.372 72.0084C408.76 74.3161 411.878 76.6237 413.724 78.9323C415.803 81.0094 417.42 83.4328 418.574 86.2023C419.729 88.7404 420.421 90.5871 420.652 91.7414C420.883 92.8947 420.998 94.049 420.998 95.2033C420.998 111.128 407.721 119.437 381.165 120.129H280.715C278.406 131.668 278.522 143.901 281.062 156.826C283.833 169.519 288.567 181.405 295.263 192.483C301.96 203.562 311.428 212.793 323.666 220.179C335.905 227.333 349.76 230.911 365.231 230.911C376.547 230.911 388.901 227.103 402.294 219.486C415.688 211.639 426.194 200.676 433.814 186.598H435.893ZM293.878 92.4338C288.105 98.8957 284.064 106.512 281.755 115.283L357.611 112.859L375.623 111.821C383.013 111.359 387.631 109.051 389.478 104.897C391.326 100.742 390.749 96.2419 387.746 91.3952C384.975 86.5485 380.934 82.509 375.623 79.2785C362.46 71.6622 347.566 69.4694 330.94 72.7008C314.546 75.9313 302.191 82.509 293.878 92.4338ZM440.141 168.25C440.141 196.638 451.456 217.294 474.086 230.218C491.405 240.142 509.647 243.028 528.814 238.873C545.671 235.18 556.062 227.217 559.988 214.986C560.911 211.985 561.373 208.869 561.373 205.639C561.143 198.483 556.64 192.252 547.865 186.944C539.321 181.405 528.93 176.559 516.691 172.404C504.452 168.25 492.098 163.98 479.628 159.595C467.389 155.209 456.767 149.44 447.762 142.286C438.756 134.9 433.906 126.361 433.214 116.667C430.905 90.8176 443.605 73.9699 471.315 66.1232C499.256 58.0449 532.394 60.9303 570.726 74.778V126.707H568.647C567.493 118.859 565.184 111.474 561.72 104.551C558.487 97.3952 553.753 90.7028 547.518 84.4714C541.284 78.2399 532.855 73.6237 522.233 70.6237C511.611 67.3922 499.372 66.4694 485.517 67.8541C480.898 68.5465 476.857 69.3536 473.394 70.2775C470.16 70.9699 466.235 72.3546 461.617 74.4318C457.23 76.2775 453.881 79.047 451.572 82.7404C449.493 86.4328 448.685 90.9333 449.147 96.2419C449.84 104.551 454.573 111.589 463.349 117.36C472.354 122.899 483.092 127.514 495.562 131.207C508.031 134.669 520.501 138.362 532.971 142.286C545.44 146.208 556.178 151.747 565.184 158.903C574.189 166.057 579.039 174.828 579.731 185.213C580.424 193.983 578.808 202.292 574.882 210.139C571.188 217.755 567.378 223.409 563.452 227.103C556.986 232.872 549.366 237.257 540.591 240.258C532.047 243.258 521.424 244.643 508.724 244.412C496.024 244.181 485.286 243.604 476.511 242.681C467.967 241.989 455.382 240.488 438.756 238.181L438.063 167.558L440.141 168.25ZM614.356 91.3952C634.215 72.7008 656.499 63.3536 681.206 63.3536C705.915 63.3536 727.621 72.5851 746.325 91.049C765.261 109.512 774.614 130.976 774.382 155.441C774.151 179.905 764.222 201.022 744.594 218.794C724.966 236.334 702.682 245.105 677.743 245.105C653.035 245.105 631.213 236.334 612.277 218.794C593.342 201.022 584.106 179.905 584.567 155.441C584.799 131.207 594.728 109.858 614.356 91.3952ZM684.67 238.181C702.451 238.181 716.537 231.257 726.928 217.409C737.551 203.33 742.747 182.674 742.515 155.441C741.822 127.053 734.664 105.589 721.04 91.049C707.647 76.2775 691.714 68.8927 673.24 68.8927C655.228 68.8927 640.565 76.6237 629.25 92.0876C617.935 107.32 613.316 128.438 615.395 155.441C617.242 180.828 624.863 201.023 638.256 216.025C651.649 230.795 667.121 238.181 684.67 238.181ZM812.527 208.408C812.527 219.025 817.261 227.217 826.729 232.988C836.428 238.527 847.627 241.297 860.328 241.297C886.421 241.297 905.125 229.064 916.441 204.6C926.601 183.367 928.679 159.479 922.676 132.938C916.902 107.089 905.472 88.8561 888.384 78.2399C866.447 64.8531 840.815 68.5465 811.488 89.3181L812.527 208.408ZM783.777 89.3181L765.419 102.82L811.488 57.468V84.4714C822.572 75.7008 834.118 69.3536 846.125 65.4308C858.134 61.5069 869.334 60.1222 879.725 61.2765C890.347 62.1993 900.392 64.7384 909.86 68.8927C919.558 73.047 927.756 78.9323 934.453 86.5485C941.38 94.1648 946.806 102.588 950.732 111.821C954.657 120.822 956.389 130.976 955.927 142.286C955.696 153.594 953.157 164.788 948.308 175.866C947.383 177.712 945.998 180.251 944.151 183.482C942.534 186.482 938.724 192.022 932.72 200.1C926.716 207.946 920.482 214.87 914.016 220.871C907.781 226.871 899.699 232.41 889.77 237.488C880.071 242.335 870.257 244.758 860.328 244.758C859.173 244.758 857.672 244.643 855.824 244.412C853.977 244.412 850.513 243.95 845.433 243.028C840.583 242.335 836.196 241.297 832.271 239.912C828.345 238.296 824.304 235.872 820.147 232.642C816.222 229.18 813.566 225.256 812.18 220.871V316.767L783.777 341V89.3181Z" fill="#EEE5DA"/>
</svg>
