<svg width="874" height="283" viewBox="0 0 874 283" fill="none" xmlns="http://www.w3.org/2000/svg">
<path d="M201.367 278.943C198.132 272.252 191.446 266.253 181.29 260.947C171.144 255.64 160.184 250.679 148.42 246.066C136.882 241.451 125.353 235.913 113.815 229.454C102.512 222.993 93.0522 213.764 85.4352 201.767C77.828 189.769 74.0145 175.233 74.0145 158.16V151.585L115.893 151.239C123.04 151.239 129.157 151.007 134.235 150.547C139.539 149.854 144.96 148.47 150.499 146.394C156.037 144.317 160.527 141.548 163.988 138.088C167.683 134.395 170.566 129.436 172.644 123.206C174.948 116.977 176.104 109.593 176.104 101.057C176.104 87.4437 172.987 76.2536 166.762 67.4863C160.762 58.4881 153.381 52.3739 144.617 49.1439C136.078 45.9137 126.383 44.2987 115.541 44.2987L41.4877 44.6448V278.943H10V39.1074H123.158C147.381 39.1074 168.027 44.9909 185.104 56.7577C202.171 68.5245 210.709 82.9446 210.709 100.018C210.709 114.554 201.945 127.936 184.408 140.164C166.88 152.161 148.538 158.275 129.383 158.507H76.7888C76.7888 174.657 84.2882 187.346 99.2772 196.576C114.276 205.574 136.078 212.956 164.684 218.725C200.671 227.954 220.052 248.026 222.816 278.943H201.367ZM246.726 67.4863C243.266 64.0254 241.53 59.757 241.53 54.6812C241.53 49.6052 243.266 45.3369 246.726 41.8761C250.187 38.1845 254.451 36.3388 259.529 36.3388C264.607 36.3388 268.871 38.1845 272.332 41.8761C276.028 45.3369 277.871 49.6052 277.871 54.6812C277.871 59.757 276.028 64.0254 272.332 67.4863C268.871 70.9471 264.607 72.6775 259.529 72.6775C254.451 72.6775 250.187 70.9471 246.726 67.4863ZM273.028 258.178L274.41 278.943H243.266L244.648 258.178V105.902H273.028V258.178ZM432.427 227.723C424.349 242.259 414.781 254.14 403.704 263.37C392.636 272.598 381.676 278.136 370.834 279.982C360.217 282.058 350.179 281.827 340.728 279.29C331.494 276.982 323.994 271.906 318.23 264.062C312.466 255.986 309.584 246.296 309.584 234.991V125.975H287.086L337.611 64.0254V105.902H409.242L391.94 125.975H337.611L336.572 245.027C336.337 259.793 342.571 268.791 355.257 272.022C368.873 275.483 384.097 271.098 400.939 258.871C411.781 250.795 421.241 240.413 429.309 227.723H432.427ZM431.672 213.534L431.329 105.902H460.052V207.304C460.052 222.993 463.973 236.606 471.816 248.142C479.894 259.447 489.579 267.061 500.882 270.984C512.185 274.675 524.527 273.521 537.909 267.523C551.525 261.524 563.289 250.219 573.21 233.607V225.993L573.896 105.902H601.933V226.339C601.933 258.639 608.854 276.29 622.696 279.29C604.001 279.29 591.198 276.059 584.277 269.599C577.592 262.908 573.896 252.872 573.21 239.49C566.053 251.718 557.407 261.524 547.251 268.907C537.33 276.059 527.184 280.443 516.802 282.058C506.646 283.673 496.383 283.211 486.001 280.674C475.855 278.366 466.738 274.213 458.66 268.215C450.818 262.216 444.357 254.486 439.289 245.027C434.211 235.337 431.672 224.839 431.672 213.534ZM658.419 108.324C668.575 104.171 679.76 101.979 691.984 101.749C704.444 101.518 716.326 103.248 727.629 106.94C738.932 110.401 749.313 115.13 758.773 121.13C768.469 127.128 776.076 134.627 781.614 143.625C787.379 152.392 790.261 161.621 790.261 171.312C790.261 191.384 790.378 208.111 790.614 221.494V226.339C790.614 258.409 797.535 275.943 811.377 278.943C792.692 278.943 779.879 277.097 772.958 273.406C766.273 269.714 762.577 261.408 761.891 248.488V221.494L762.577 199.344C762.577 199.344 762.469 199.69 762.234 200.383C747.009 231.991 728.903 254.832 707.905 268.907C695.219 277.443 682.417 281.712 669.496 281.712C648.958 281.712 634.313 275.021 625.549 261.639C617.01 248.949 616.892 235.337 625.196 220.802C636.273 201.421 658.654 188.27 692.337 181.348C693.024 181.117 693.827 180.886 694.759 180.656C695.906 180.424 697.984 179.964 700.984 179.272C704.209 178.579 707.326 177.887 710.326 177.195C713.561 176.271 717.247 175.233 721.404 174.08C725.786 172.696 729.707 171.426 733.167 170.273C736.853 169.119 740.549 167.851 744.245 166.466C748.166 164.851 751.391 163.352 753.93 161.967C756.469 160.583 758.548 159.083 760.155 157.468C762.008 155.853 762.93 154.354 762.93 152.969C763.39 132.896 756.117 120.783 741.128 116.63C726.364 112.246 706.405 114.784 681.26 124.244L630.048 143.279L658.419 108.324ZM649.076 238.452C661.075 256.217 675.378 262.446 691.984 257.14C708.601 251.833 724.403 240.066 739.392 221.84C754.391 203.382 762.116 186.654 762.577 171.658L762.93 161.275L761.891 161.967C761.195 162.66 759.469 163.812 756.695 165.428C754.156 167.043 750.695 168.889 746.313 170.966C742.167 172.811 735.706 175.003 726.942 177.541C718.404 180.078 708.601 182.617 697.523 185.155C697.288 185.155 695.68 185.501 692.68 186.193C689.906 186.885 687.024 187.578 684.024 188.27C681.26 188.962 677.799 190.115 673.643 191.731C669.496 193.115 665.8 194.73 662.575 196.576C659.34 198.19 656.115 200.497 652.88 203.497C649.88 206.266 647.694 209.265 646.312 212.496C644.92 215.725 644.351 219.648 644.577 224.262C644.812 228.646 646.312 233.375 649.076 238.452ZM843.237 0C841.394 75.4462 841.394 150.893 843.237 226.339C843.933 258.639 850.854 276.175 864 278.943C845.541 278.943 832.855 277.097 825.934 273.406C819.249 269.714 815.553 261.408 814.857 248.488V25.2641L843.237 0Z" fill="#EEE5DA"/>
</svg>
